<?xml version="1.0" standalone="no"?>
<!DOCTYPE svg PUBLIC "-//W3C//DTD SVG 20010904//EN"
 "http://www.w3.org/TR/2001/REC-SVG-20010904/DTD/svg10.dtd">
<svg version="1.0" xmlns="http://www.w3.org/2000/svg"
 width="1024.000000pt" height="1031.000000pt" viewBox="0 0 1024.000000 1031.000000"
 preserveAspectRatio="xMidYMid meet">

<g transform="translate(0.000000,1031.000000) scale(0.100000,-0.100000)"
fill="#000000" stroke="none">
<path d="M8127 8455 c-460 -63 -1118 -357 -1829 -816 -235 -153 -324 -189
-465 -189 -77 0 -103 6 -345 84 -317 102 -423 133 -638 186 -702 173 -1636
290 -2520 316 -470 14 -555 -33 -513 -286 39 -239 161 -544 329 -821 66 -108
84 -165 84 -264 0 -42 45 -148 100 -235 17 -28 34 -77 44 -127 15 -73 64 -214
81 -231 3 -4 14 4 24 16 l17 23 39 -81 c39 -84 55 -100 78 -81 11 8 20 -2 42
-49 16 -33 36 -67 46 -76 15 -13 18 -13 32 0 13 13 18 9 41 -43 40 -89 49
-147 37 -234 -6 -42 -18 -95 -27 -119 -8 -24 -21 -69 -27 -101 l-12 -59 -23
27 c-21 24 -26 26 -39 13 -8 -9 -20 -47 -26 -86 -7 -39 -15 -73 -18 -76 -3 -3
-16 12 -28 34 -38 68 -55 50 -73 -80 l-14 -94 -22 38 c-12 21 -28 36 -35 34
-24 -8 -39 -80 -33 -156 4 -54 2 -87 -10 -123 -12 -35 -15 -72 -12 -129 6
-105 46 -188 125 -260 134 -123 292 -159 778 -180 138 -6 246 -15 268 -23 l38
-13 -113 -76 c-212 -143 -555 -451 -711 -637 l-37 -45 -28 25 c-15 14 -63 58
-107 99 -302 278 -691 527 -950 609 -164 52 -193 57 -223 40 -15 -8 -28 -21
-30 -29 -1 -9 33 -65 76 -126 74 -105 101 -148 200 -321 45 -77 58 -85 152
-98 102 -14 101 -13 94 -49 -5 -30 2 -42 74 -132 166 -207 324 -520 438 -865
39 -121 47 -157 48 -224 0 -78 -2 -86 -76 -265 -42 -102 -97 -252 -123 -335
-141 -456 -212 -586 -454 -833 -108 -110 -124 -135 -99 -160 28 -28 202 -5
355 46 179 61 369 172 543 319 155 131 278 268 522 584 255 329 317 358 666
306 188 -28 218 -42 216 -99 0 -18 -13 -53 -29 -78 -57 -91 -31 -125 90 -117
112 8 250 54 360 121 l90 54 95 -13 c52 -8 134 -17 182 -21 84 -6 87 -7 92
-33 25 -128 14 -201 -49 -326 -25 -50 -45 -98 -45 -106 0 -50 67 -48 215 6
202 73 374 180 536 333 l105 99 195 6 c478 15 865 101 1204 267 156 76 316
177 417 263 37 31 69 57 71 57 3 0 56 -60 118 -132 165 -193 370 -418 430
-472 52 -47 76 -55 97 -34 20 20 14 54 -22 141 -47 111 -229 485 -309 631
l-65 119 70 106 c201 306 328 669 368 1051 26 256 -3 635 -71 905 -96 381
-265 753 -517 1140 -99 151 -122 199 -151 314 -54 214 1 541 153 918 154 383
360 722 638 1050 97 114 120 153 120 199 0 87 -89 109 -315 79z m223 -91 c0
-4 -31 -43 -68 -88 -287 -341 -457 -605 -619 -961 -162 -358 -246 -668 -247
-915 -1 -63 3 -128 7 -145 7 -24 -19 -1 -123 107 -128 134 -307 294 -317 284
-3 -3 28 -43 69 -88 804 -894 1185 -1782 1128 -2631 -24 -366 -154 -760 -346
-1055 -66 -101 -52 -108 -151 72 -75 137 -263 451 -404 677 -117 188 -134 221
-198 385 -47 119 -164 325 -177 311 -3 -3 11 -37 31 -76 25 -50 105 -267 105
-286 0 0 -39 38 -87 85 -49 47 -126 116 -173 153 -82 65 -237 164 -245 156 -2
-3 42 -38 98 -79 56 -41 163 -136 237 -210 l135 -135 146 -245 c81 -135 192
-321 248 -414 129 -213 271 -461 393 -686 104 -191 261 -501 273 -538 8 -27
-137 130 -390 423 -503 583 -864 986 -1150 1285 -386 402 -452 477 -470 526
-23 61 -33 73 -45 54 -15 -24 -11 -99 7 -138 9 -19 77 -99 150 -176 291 -307
536 -571 703 -756 163 -181 229 -255 415 -464 125 -140 235 -271 235 -278 0
-13 -124 -111 -230 -181 -118 -78 -323 -181 -449 -226 -183 -66 -426 -120
-656 -145 -140 -15 -455 -33 -455 -25 0 2 11 26 25 53 14 27 23 51 21 54 -3 2
-69 -60 -148 -138 -157 -156 -251 -233 -373 -303 -82 -47 -262 -124 -270 -115
-3 3 1 18 9 34 40 79 55 206 37 302 -8 38 -6 43 13 46 161 31 288 85 369 157
27 23 46 44 43 46 -3 3 -28 -9 -56 -26 -28 -17 -86 -43 -128 -57 -179 -61
-394 -47 -1073 66 -162 28 -396 63 -520 80 -326 44 -441 71 -562 131 -47 25
-48 10 0 -31 45 -40 149 -91 237 -116 36 -10 66 -21 66 -24 -1 -3 -26 -21 -57
-40 -67 -42 -158 -143 -318 -349 -66 -85 -162 -203 -213 -263 -184 -213 -427
-404 -629 -493 -94 -41 -283 -100 -283 -88 0 3 36 43 80 89 90 94 193 244 247
361 20 43 75 197 123 343 48 146 118 342 156 435 l69 170 0 100 c-1 92 -4 111
-49 245 -141 422 -271 673 -486 940 -18 23 -19 28 -6 65 24 68 14 75 -178 108
l-69 12 -81 135 c-45 74 -96 156 -114 183 -18 26 -29 47 -23 47 5 0 49 -14 98
-31 268 -95 578 -304 931 -629 l82 -76 -66 -99 c-122 -186 -191 -356 -166
-410 16 -35 54 -48 103 -35 22 6 128 54 235 105 107 52 200 95 207 95 7 0 22
-15 34 -33 71 -104 262 -290 336 -329 22 -10 37 -21 35 -24 -3 -2 -39 -13 -82
-24 -92 -23 -187 -72 -222 -113 -30 -36 -24 -47 11 -19 34 27 158 67 265 87
47 9 191 20 320 25 417 17 615 42 878 110 368 96 614 237 697 399 l17 34 19
-24 c30 -39 99 -175 114 -226 37 -123 8 -262 -80 -381 -61 -82 -116 -124 -258
-194 -95 -47 -324 -138 -348 -138 -7 0 -10 -2 -7 -5 3 -3 52 6 109 20 221 56
397 139 505 237 68 63 129 181 144 282 20 127 -23 288 -110 416 l-41 60 75
-45 c185 -113 368 -266 457 -383 54 -72 67 -67 17 6 -125 185 -260 303 -603
532 -93 62 -249 171 -345 242 -371 273 -644 460 -792 544 -48 27 -85 50 -84
52 2 1 66 -6 142 -17 160 -23 515 -61 574 -61 65 0 45 17 -27 23 -194 16 -666
104 -918 170 -124 33 -128 35 -90 42 144 26 336 83 285 85 -8 0 -116 -12 -240
-26 -204 -23 -249 -25 -485 -20 -444 9 -616 47 -730 161 -24 24 -53 61 -64 84
-25 48 -26 58 -5 37 63 -63 164 -107 293 -127 152 -23 365 26 571 132 283 145
644 440 829 677 36 45 68 79 73 74 4 -4 27 -84 52 -177 48 -185 64 -199 53
-47 -16 215 -83 465 -181 668 -159 330 -374 516 -731 633 -226 73 -400 110
-620 131 -60 5 -172 17 -247 24 -144 16 -233 10 -249 -15 -14 -23 -36 47 -43
139 -8 99 -26 151 -93 263 -86 145 -119 210 -178 349 -122 291 -173 536 -121
579 69 57 813 36 1516 -44 927 -106 1523 -238 2290 -510 265 -94 697 -296 861
-403 104 -68 111 -70 54 -16 -84 80 -307 219 -516 323 -130 65 -193 101 -182
105 10 2 38 10 63 16 59 15 177 78 330 177 221 141 521 319 680 401 373 194
836 364 1092 400 74 11 238 15 238 6z m-5670 -1849 c381 -39 477 -55 686 -116
301 -87 518 -225 656 -418 l32 -46 -62 55 c-35 30 -72 60 -82 66 -11 6 -31 22
-45 36 -14 14 -39 32 -57 39 -17 7 -47 30 -67 51 -28 30 -46 41 -79 45 -30 4
-48 13 -58 29 -21 31 -74 54 -124 54 -32 0 -51 8 -82 33 -37 29 -46 32 -112
32 -57 1 -80 6 -109 24 -48 30 -108 37 -158 21 -26 -9 -45 -10 -53 -4 -55 40
-74 48 -121 52 -30 2 -68 -1 -86 -7 -27 -9 -35 -8 -51 5 -26 25 -112 31 -142
10 -24 -15 -27 -15 -61 6 -31 18 -42 19 -71 10 -32 -9 -34 -9 -34 13 0 20 10
31 30 34 3 1 115 -10 250 -24z m-190 -73 l23 -19 -26 -94 c-15 -52 -27 -103
-28 -114 -1 -40 -18 21 -30 110 -17 121 5 163 61 117z m194 -5 c18 -13 18 -15
0 -48 -9 -19 -30 -70 -44 -114 l-27 -80 -21 95 c-27 120 -28 132 -19 148 11
16 88 16 111 -1z m216 -22 c36 -18 36 -19 8 -76 -12 -24 -31 -72 -43 -107
l-22 -62 -22 57 c-34 92 -61 186 -55 195 9 14 103 9 134 -7z m-160 -51 c0 -21
45 -154 71 -209 14 -29 27 -45 37 -43 8 2 29 44 51 104 40 112 66 159 74 134
3 -8 22 -69 43 -135 27 -82 44 -121 55 -123 12 -2 32 29 75 114 67 135 63 136
97 -31 15 -78 26 -111 37 -112 9 -2 37 32 75 92 32 52 61 93 63 91 2 -2 10
-48 18 -101 8 -54 17 -101 20 -106 13 -21 34 -4 84 66 29 41 56 75 60 75 8 0
20 -84 20 -136 0 -17 7 -37 15 -44 12 -10 22 -3 61 39 26 28 50 51 54 51 4 0
8 -30 9 -67 1 -38 6 -72 12 -78 6 -6 24 5 49 30 l40 39 0 -52 c0 -63 15 -74
60 -42 l30 21 0 -26 c0 -14 5 -35 10 -45 10 -19 11 -19 54 2 24 11 51 18 59
15 9 -3 26 -25 38 -48 28 -57 110 -261 106 -265 -2 -2 -39 1 -83 6 -108 14
-371 14 -473 0 -219 -30 -405 -114 -597 -270 -114 -94 -246 -247 -295 -342
-20 -39 -43 -128 -35 -135 3 -3 18 22 35 56 67 132 256 335 421 453 84 60 227
131 315 156 131 39 196 46 375 46 257 -2 370 -21 370 -65 0 -16 -103 -160
-157 -219 l-60 -65 -48 38 c-68 52 -75 50 -75 -26 0 -35 -3 -66 -6 -70 -4 -3
-26 9 -49 28 -23 19 -47 35 -52 35 -6 0 -13 -34 -16 -76 -3 -42 -8 -79 -12
-82 -3 -3 -27 15 -53 41 -72 71 -82 64 -82 -63 0 -48 -4 -82 -11 -86 -7 -4
-37 21 -73 61 -39 43 -67 66 -74 61 -8 -5 -12 -36 -12 -85 0 -74 -2 -80 -26
-96 l-26 -17 -45 51 c-68 77 -78 70 -86 -57 -3 -65 -9 -76 -43 -86 -17 -5 -26
4 -55 54 -52 92 -57 98 -68 81 -5 -8 -15 -44 -21 -80 -16 -96 -18 -101 -47
-101 -21 0 -30 11 -61 80 -20 44 -40 80 -44 80 -10 0 -36 -90 -44 -151 -4 -27
-10 -49 -14 -49 -4 0 -22 37 -40 83 -34 85 -46 107 -61 107 -9 0 -24 -48 -37
-114 l-8 -40 -33 90 c-19 49 -40 93 -47 98 -8 7 -3 15 20 31 35 23 46 65 22
85 -24 19 -19 27 13 22 16 -2 38 1 50 8 31 16 81 89 81 117 0 13 7 26 18 30
30 11 62 46 62 69 0 15 9 25 29 32 16 6 37 23 47 37 18 27 18 28 -14 54 -63
52 -89 70 -96 64 -3 -3 -6 -33 -6 -65 0 -33 -4 -58 -10 -58 -21 0 -21 29 -1
130 37 183 26 267 -55 417 -32 58 -43 89 -39 106 4 15 1 28 -10 37 -13 11 -18
7 -33 -29 -9 -22 -20 -41 -23 -41 -7 0 -44 97 -55 143 -8 36 -21 34 -41 -8
-26 -55 -33 -47 -48 58 -8 54 -2 60 20 17 20 -38 33 -38 46 -1 l10 29 43 -47
c70 -75 136 -160 196 -252 71 -108 93 -182 88 -296 -1 -44 0 -79 3 -77 16 9
31 111 26 170 -8 109 -112 283 -284 482 -61 69 -61 70 -22 169 20 49 39 62 39
27z m406 10 c19 -9 34 -19 34 -23 0 -6 -65 -127 -98 -181 -7 -11 -18 14 -42
89 -30 100 -31 105 -14 118 24 18 79 16 120 -3z m-597 -150 c-13 -49 -24 -56
-33 -21 -9 33 -7 68 6 112 l11 40 13 -44 c10 -34 11 -54 3 -87z m818 92 c26
-23 27 -26 13 -49 -49 -78 -84 -127 -87 -123 -6 5 -42 165 -43 184 0 8 15 12
44 12 33 0 52 -6 73 -24z m196 -74 c20 -20 20 -20 -29 -82 -55 -70 -55 -71
-69 51 l-7 62 42 -6 c24 -3 52 -14 63 -25z m144 -74 c31 -29 29 -38 -11 -77
l-35 -34 -6 39 c-3 22 -8 51 -10 67 -4 22 -1 27 17 27 12 0 32 -10 45 -22z
m122 -94 l22 -16 -22 -24 c-31 -33 -39 -30 -39 16 0 44 5 47 39 24z m99 -77
c8 -10 6 -16 -9 -25 -17 -11 -19 -9 -19 13 0 27 12 32 28 12z m82 -78 c0 -5
-4 -9 -10 -9 -5 0 -10 7 -10 16 0 8 5 12 10 9 6 -3 10 -10 10 -16z m-1051
-546 c23 -15 23 -17 6 -30 -27 -19 -32 -17 -37 17 -5 35 -1 36 31 13z m-69
-104 c0 -9 -39 -43 -44 -38 -2 2 -7 21 -11 42 l-7 37 31 -17 c17 -10 31 -21
31 -24z m1100 -90 c0 -9 -39 -43 -44 -38 -2 2 -1 18 1 36 5 28 7 31 24 20 10
-6 19 -15 19 -18z m-1203 -63 c-6 -18 -55 -48 -66 -42 -12 8 -15 84 -4 112 5
15 12 11 40 -22 18 -21 31 -43 30 -48z m33 70 c0 -8 -4 -17 -9 -21 -12 -7 -24
12 -16 25 9 15 25 12 25 -4z m1036 -71 c19 -29 14 -50 -15 -58 -19 -5 -21 -1
-21 39 0 50 12 56 36 19z m-1181 -121 c12 -17 -9 -40 -46 -49 -23 -6 -27 -3
-33 26 -3 17 -6 57 -6 88 l0 56 38 -54 c20 -30 41 -60 47 -67z m1265 102 c0
-2 -7 -7 -16 -10 -8 -3 -12 -2 -9 4 6 10 25 14 25 6z m-190 -102 c0 -15 -44
-44 -66 -44 -13 0 -15 6 -10 31 3 17 6 45 6 62 l0 31 35 -34 c19 -19 35 -39
35 -46z m110 33 c0 -2 -21 -19 -47 -37 -40 -29 -45 -31 -30 -10 9 13 29 29 44
36 34 15 33 15 33 11z m-300 -87 c41 -49 42 -52 25 -70 -20 -22 -72 -42 -79
-31 -5 7 4 151 10 151 1 0 21 -23 44 -50z m-1030 -82 c0 -27 -4 -48 -9 -48
-10 0 -31 86 -31 123 0 22 1 22 20 -3 13 -17 20 -41 20 -72z m1200 68 c0 -13
-238 -176 -350 -239 -181 -102 -434 -162 -583 -138 -140 23 -236 80 -278 165
l-21 41 40 -42 c22 -24 47 -43 57 -43 9 0 26 -11 37 -25 16 -20 28 -25 66 -25
26 0 56 -7 66 -15 22 -17 83 -20 105 -6 10 6 25 4 45 -6 39 -20 110 -12 141
17 19 18 27 20 43 11 66 -35 204 44 163 93 -9 11 -8 15 4 20 10 4 15 -1 15
-14 0 -26 39 -35 84 -20 42 13 96 61 96 84 0 12 10 16 34 16 64 0 128 38 147
88 5 14 17 22 31 22 13 0 30 5 38 10 17 11 20 12 20 6z m-1094 -32 c-3 -9 -6
-32 -6 -52 0 -47 -17 -31 -26 26 -6 39 -5 42 16 42 16 0 20 -4 16 -16z m748
-52 c20 -24 36 -50 36 -58 0 -16 -35 -40 -72 -49 -26 -7 -28 -5 -28 26 0 60
13 140 21 132 4 -4 23 -28 43 -51z m-774 -124 c0 -25 -16 -23 -34 4 -11 15
-16 44 -15 88 l0 65 25 -69 c13 -39 24 -78 24 -88z m857 106 c-9 -9 -28 6 -21
18 4 6 10 6 17 -1 6 -6 8 -13 4 -17z m-772 -77 c17 -39 31 -75 33 -78 5 -12
-41 -18 -60 -8 -16 9 -19 21 -17 85 1 41 5 74 8 74 3 0 20 -33 36 -73z m488
15 c20 -32 37 -66 37 -74 0 -17 -48 -38 -87 -38 -21 0 -24 4 -19 28 3 15 8 53
12 85 3 31 9 57 13 57 3 0 23 -26 44 -58z m-323 -122 c0 -4 -11 -11 -25 -14
-33 -8 -67 10 -61 32 3 9 8 44 12 77 l7 60 33 -74 c19 -40 34 -77 34 -81z
m165 -10 c-7 -12 -92 -13 -98 -2 -3 4 2 43 11 86 l15 79 39 -77 c21 -42 36
-81 33 -86z m55 40 c0 -11 -2 -20 -5 -20 -2 0 -9 9 -15 20 -9 16 -8 20 5 20 8
0 15 -9 15 -20z m762 -524 c160 -60 346 -170 687 -407 119 -82 227 -157 240
-168 23 -18 22 -18 -125 -24 -180 -7 -303 -28 -669 -114 -510 -119 -759 -206
-1167 -408 -128 -63 -238 -115 -245 -115 -16 0 16 89 60 170 166 300 496 649
872 920 111 80 254 170 271 170 8 0 42 -11 76 -24z m1076 -717 c64 -36 226
-154 265 -194 42 -43 32 -92 -31 -159 -42 -43 -167 -131 -217 -152 -37 -15
-42 -14 -215 49 -197 72 -334 85 -385 37 -22 -21 -25 -32 -25 -94 0 -86 -19
-129 -77 -169 -49 -35 -95 -42 -405 -58 -209 -11 -233 -11 -292 5 -115 32
-213 106 -341 260 -47 55 -85 104 -85 108 0 9 135 64 270 110 205 69 420 128
693 189 355 79 470 97 646 98 143 1 145 1 199 -30z m-255 -536 l142 -46 -75
-24 c-88 -29 -277 -77 -338 -88 l-42 -7 25 48 c19 36 25 62 25 112 l0 65 60
-6 c33 -4 124 -28 203 -54z m-354 -932 c62 -11 115 -22 117 -24 15 -15 -187
-94 -278 -109 l-26 -5 20 39 c15 29 19 51 15 83 -4 42 -3 44 17 40 11 -3 72
-14 135 -24z"/>
<path d="M8050 8250 c0 -5 6 -10 14 -10 8 0 18 -5 21 -10 6 -10 -18 -45 -153
-219 -338 -435 -561 -909 -617 -1312 -8 -62 -20 -118 -26 -126 -16 -18 -43
-16 -92 7 l-42 21 28 -25 c52 -48 116 -47 135 1 6 16 18 75 27 133 34 224 102
424 234 689 112 222 201 363 402 634 122 163 143 202 118 218 -19 12 -49 11
-49 -1z"/>
<path d="M7290 7929 c-349 -198 -738 -470 -838 -584 -51 -58 -43 -130 24 -212
47 -57 63 -55 23 3 -40 59 -61 126 -49 158 26 69 351 307 800 586 264 164 258
160 244 160 -5 0 -97 -50 -204 -111z"/>
<path d="M1986 7912 c-4 -6 25 -17 66 -27 298 -67 725 -244 940 -389 l83 -56
-56 53 c-72 68 -209 150 -379 225 -258 115 -634 226 -654 194z"/>
<path d="M2515 7825 c6 -2 84 -20 175 -39 512 -107 732 -183 821 -284 33 -38
39 -52 37 -81 -3 -35 -5 -37 -65 -56 -35 -10 -63 -22 -63 -26 0 -15 126 22
143 42 48 58 -17 156 -152 228 -118 62 -417 148 -661 190 -113 19 -255 35
-235 26z"/>
<path d="M3685 7674 c-101 -20 -125 -27 -130 -35 -3 -5 34 -27 82 -50 48 -23
152 -77 231 -121 79 -44 146 -78 149 -75 9 10 -173 123 -295 184 -62 31 -111
57 -109 59 1 2 59 8 127 13 250 20 577 -27 1070 -155 920 -239 1553 -528 2030
-928 114 -95 131 -108 100 -72 -50 56 -278 240 -405 325 -280 189 -601 346
-990 485 -425 151 -1005 302 -1370 355 -129 19 -423 28 -490 15z"/>
<path d="M2331 7587 c31 -13 71 -33 90 -45 40 -25 266 -209 370 -302 40 -36
67 -55 61 -44 -14 26 -160 160 -294 270 -102 85 -186 132 -246 140 -34 5 -32
3 19 -19z"/>
<path d="M2098 7589 c-24 -14 -23 -96 2 -169 l19 -55 -7 65 c-9 92 -6 129 14
151 13 15 14 19 3 19 -8 0 -22 -5 -31 -11z"/>
<path d="M3564 7285 c-170 -85 -16 -277 200 -250 l53 7 7 -34 c3 -18 13 -46
21 -62 9 -16 14 -30 12 -32 -1 -2 -29 17 -62 41 -32 25 -61 42 -63 40 -11 -11
53 -77 110 -114 147 -97 294 -91 386 14 44 49 40 64 -5 25 -38 -34 -107 -70
-133 -70 -8 0 -1 9 15 20 17 11 41 38 54 61 19 33 22 52 19 100 -4 58 -4 58
21 53 83 -18 207 -68 366 -146 99 -48 181 -88 183 -88 13 0 -23 30 -106 87
-53 38 -140 104 -192 148 -137 115 -169 139 -225 168 -49 24 -144 55 -115 36
8 -5 56 -35 106 -67 51 -31 114 -76 140 -100 l49 -42 -55 22 c-182 72 -283 74
-499 12 -137 -39 -244 -30 -301 27 -65 66 -16 125 128 154 l67 13 -66 1 c-51
1 -76 -4 -115 -24z m356 -245 c0 -12 12 -32 26 -45 38 -35 98 -34 136 2 23 22
28 24 28 9 0 -51 -59 -106 -115 -106 -64 0 -133 81 -118 138 7 29 43 30 43 2z"/>
<path d="M3030 7202 c0 -5 9 -17 21 -28 34 -31 51 -73 45 -108 -8 -39 -50 -82
-91 -91 -16 -4 -37 -9 -45 -11 -28 -9 12 -24 66 -24 43 0 56 5 90 34 39 33 40
34 79 20 22 -7 41 -14 42 -14 1 0 35 -46 76 -103 110 -150 138 -172 352 -278
201 -99 312 -173 408 -273 120 -125 326 -402 448 -603 39 -65 68 -107 65 -93
-33 124 -305 514 -501 718 -112 117 -201 176 -425 285 -163 78 -179 89 -233
148 -32 35 -79 93 -105 129 -50 69 -101 110 -137 110 -21 0 -22 4 -18 43 6 54
-16 100 -60 127 -33 20 -77 27 -77 12z"/>
<path d="M5038 6868 c89 -115 214 -300 207 -306 -2 -2 -16 5 -32 16 -68 47
-214 134 -219 130 -2 -3 23 -26 55 -52 33 -25 74 -61 92 -79 57 -57 87 -155
57 -185 -28 -28 -67 -16 -352 113 -82 36 -56 10 57 -61 91 -56 267 -183 445
-321 51 -40 98 -73 103 -73 15 0 -85 86 -241 208 -74 58 -139 109 -145 114 -5
5 10 2 34 -7 58 -20 83 -19 115 6 32 25 35 74 6 136 l-19 42 42 -25 c23 -15
81 -53 130 -86 48 -32 87 -57 87 -54 0 3 -38 37 -85 76 -47 39 -85 75 -85 81
0 16 -148 239 -207 311 -29 36 -70 79 -89 93 -29 22 -21 7 44 -77z"/>
<path d="M2340 6921 c-53 -10 -25 -18 85 -26 55 -3 162 -13 237 -21 75 -8 156
-14 180 -13 l43 1 -50 14 c-105 28 -427 58 -495 45z"/>
<path d="M3760 6891 c0 -24 125 -137 180 -163 72 -34 168 -52 232 -45 60 8
138 43 188 87 l35 31 -70 -35 c-106 -51 -139 -59 -218 -53 -93 8 -216 66 -292
138 -30 29 -55 46 -55 40z"/>
<path d="M2360 6841 c0 -5 30 -12 68 -16 158 -14 438 -49 492 -61 16 -3 21 -2
15 4 -46 44 -575 110 -575 73z"/>
<path d="M5964 6393 c51 -297 63 -445 47 -613 -29 -300 -110 -505 -305 -770
-91 -124 -351 -382 -493 -490 -118 -89 -145 -121 -65 -74 509 296 834 723 918
1204 26 150 15 399 -24 550 -44 169 -97 299 -78 193z"/>
<path d="M4676 6349 c4 -8 36 -54 70 -104 34 -49 92 -148 130 -219 77 -145
135 -216 203 -251 26 -13 108 -42 182 -64 142 -43 256 -95 273 -123 8 -13 7
-24 -2 -39 -19 -30 -4 -38 19 -10 26 31 24 47 -8 77 -40 37 -133 78 -268 119
-66 19 -148 49 -183 66 -76 37 -102 70 -199 252 -67 127 -185 296 -212 305
-10 3 -11 0 -5 -9z"/>
<path d="M7104 6210 c268 -280 450 -528 627 -855 208 -384 303 -715 341 -1180
12 -147 13 -154 16 -80 9 214 -39 519 -124 794 -159 508 -557 1105 -954 1431
-32 26 7 -20 94 -110z"/>
<path d="M6190 6244 c0 -11 10 -71 22 -134 32 -166 32 -428 -1 -590 -61 -309
-232 -604 -501 -869 -101 -100 -241 -223 -354 -311 -38 -30 -64 -56 -57 -58
17 -6 201 115 326 214 255 202 445 442 562 707 131 296 147 639 46 961 -26 84
-43 115 -43 80z"/>
<path d="M5895 6119 c13 -175 -23 -283 -140 -423 -88 -105 -89 -110 -14 -45
150 132 213 302 179 483 -19 101 -32 93 -25 -15z"/>
<path d="M6450 6005 c0 -6 5 -73 11 -149 31 -410 -92 -773 -377 -1117 -131
-158 -422 -414 -623 -548 -92 -61 -94 -81 -4 -30 274 153 555 386 724 599 288
362 392 763 303 1165 -14 61 -34 108 -34 80z"/>
<path d="M6643 5637 c0 -480 -166 -799 -626 -1204 -59 -53 -106 -98 -103 -101
18 -17 267 180 391 309 108 112 137 148 206 259 106 171 157 344 166 560 5
131 -9 304 -26 315 -5 2 -8 -60 -8 -138z"/>
<path d="M4645 5623 c10 -16 29 -44 42 -63 12 -19 23 -40 23 -46 0 -6 7 -17
15 -24 37 -31 -3 73 -49 128 -34 39 -55 43 -31 5z"/>
<path d="M4763 5508 c17 -77 61 -246 68 -263 8 -20 8 -20 14 0 3 12 16 25 27
30 12 6 39 42 60 80 45 80 71 111 112 132 58 30 102 -12 59 -59 -9 -10 -11
-18 -5 -18 17 0 52 41 52 61 0 29 -29 49 -71 49 -34 0 -48 -7 -90 -47 -27 -25
-64 -74 -82 -107 -18 -34 -38 -61 -46 -61 -8 0 -20 26 -31 70 -23 89 -49 155
-62 155 -6 0 -8 -10 -5 -22z"/>
<path d="M6798 5450 c-4 -25 -12 -81 -18 -125 -33 -245 -163 -501 -347 -681
-38 -36 -116 -98 -175 -137 -60 -39 -108 -75 -108 -80 0 -12 131 60 197 110
284 213 476 585 461 893 -3 65 -3 65 -10 20z"/>
<path d="M4768 5025 c-41 -80 -138 -204 -207 -267 -86 -78 -176 -130 -332
-193 -72 -30 -133 -56 -136 -58 -8 -8 77 12 147 35 236 76 466 271 546 464 25
60 11 75 -18 19z"/>
<path d="M6260 4371 c-15 -29 -12 -88 6 -124 20 -38 94 -134 293 -382 206
-256 252 -313 461 -564 102 -123 245 -298 319 -390 74 -91 157 -193 185 -227
28 -34 102 -122 164 -198 103 -123 136 -159 116 -123 -13 22 -135 178 -299
382 -89 110 -235 292 -326 405 -91 113 -248 306 -350 430 -204 248 -433 535
-503 630 -52 71 -67 122 -42 149 20 22 20 31 1 31 -8 0 -19 -9 -25 -19z"/>
<path d="M2870 6044 c0 -3 36 -47 80 -99 95 -112 126 -170 150 -279 15 -71 18
-78 25 -52 11 41 -9 139 -42 205 -36 73 -213 260 -213 225z"/>
<path d="M3319 5219 c-105 -50 -221 -133 -298 -214 -40 -42 -70 -79 -67 -82 2
-3 44 30 93 72 74 65 301 225 337 238 6 3 9 7 5 10 -3 4 -34 -7 -70 -24z"/>
<path d="M3707 4025 c-259 -143 -525 -342 -733 -549 -119 -120 -242 -264 -217
-255 6 2 52 50 102 106 206 230 523 479 874 688 91 54 119 75 100 75 -4 0 -61
-29 -126 -65z"/>
</g>
</svg>
